# AST/ASF file generated using VICON BodyLanguage
# -----------------------------------------------
:version 1.10
:name VICON
:units
  mass 1.0
  length 0.45
  angle deg
:documentation
   .ast/.asf automatically generated from VICON data using
   VICON BodyBuilder and BodyLanguage model FoxedUp or BRILLIANT.MOD
:root
   order TX TY TZ RX RY RZ
   axis XYZ
   position 0 0 0  
   orientation 0 0 0 
:bonedata
  begin
     id 1 
     name lhipjoint
     direction 0.756833 -0.6125 0.228138 
     length 2.53827 
     axis 0 0 0  XYZ
  end
  begin
     id 2 
     name lfemur
     direction 0.34202 -0.939693 0  
     length 6.51821  
     axis 0 0 20  XYZ
    dof rx ry rz
    limits (-160.0 20.0)
           (-70.0 70.0)
           (-60.0 70.0)
  end
  begin
     id 3 
     name ltibia
     direction 0.34202 -0.939693 0   
     length 6.99902   
     axis 0 0 20   XYZ
    dof rx
    limits (-10.0 170.0)
  end
  begin
     id 4 
     name lfoot
     direction 0.0951515 -0.261427 0.960522   
     length 1.92102   
     axis -90 7.62852e-016 20   XYZ
    dof rx rz
    limits (-45.0 90.0)
           (-70.0 20.0)
  end
  begin
     id 5 
     name ltoes
     direction 1.53539e-011 -4.21781e-011 1   
     length 0.964376   
     axis -90 7.62852e-016 20   XYZ
    dof rx
    limits (-90.0 20.0)
  end
  begin
     id 6 
     name rhipjoint
     direction -0.752153 -0.617542 0.230017   
     length 2.51754  
     axis 0 0 0  XYZ 
  end
  begin
     id 7 
     name rfemur
     direction -0.34202 -0.939693 0   
     length 6.82377   
     axis 0 0 -20   XYZ
    dof rx ry rz
    limits (-160.0 20.0)
           (-70.0 70.0)
           (-70.0 60.0)
  end
  begin
     id 8 
     name rtibia
     direction -0.34202 -0.939693 0   
     length 6.98689   
     axis 0 0 -20   XYZ
    dof rx
    limits (-10.0 170.0)
 end
 begin
     id 9 
     name rfoot
     direction -0.0900426 -0.24739 0.964723   
     length 2.03215  
     axis -90 -7.62852e-016 -20   XYZ
    dof rx rz
    limits (-45.0 90.0)
           (-20.0 70.0)
  end
  begin
     id 10 
     name rtoes
     direction -1.53466e-011 -4.22206e-011 1   
     length 1.0197   
     axis -90 -7.62852e-016 -20   XYZ
    dof rx
    limits (-90.0 20.0)
  end
  begin
     id 11 
     name lowerback
     direction 0.0184183 0.995705 -0.0907278   
     length 2.019   
     axis 0 0 0   XYZ
    dof rx ry rz
    limits (-20.0 45.0)
           (-30.0 30.0)
           (-30.0 30.0)
  end
  begin
     id 12 
     name upperback
     direction 0.00281055 0.998777 0.0493607   
     length 1.99623   
     axis 0 0 0   XYZ
    dof rx ry rz
    limits (-20.0 45.0)
           (-30.0 30.0)
           (-30.0 30.0)
  end
  begin
     id 13 
     name thorax
     direction -0.00665507 0.995706 0.092331   
     length 2.02811   
     axis 0 0 0   XYZ
    dof rx ry rz
    limits (-20.0 45.0)
           (-30.0 30.0)
           (-30.0 30.0)
  end
  begin
     id 14 
     name lowerneck
     direction -0.0960965 0.994358 0.0449225   
     length 1.71265   
     axis 0 0 0   XYZ
    dof rx ry rz
    limits (-20.0 45.0)
           (-30.0 30.0)
           (-30.0 30.0)
  end
  begin
     id 15 
     name upperneck
     direction 0.13642 0.985357 -0.102278   
     length 1.73016   
     axis 0 0 0   XYZ
    dof rx ry rz
    limits (-20.0 45.0)
           (-30.0 30.0)
           (-30.0 30.0)
  end
  begin
     id 16
     name head
     direction 0.0556079 0.997632 -0.040479  
     length 1.74275  
     axis 0 0 0   XYZ
    dof rx ry rz
    limits (-20.0 45.0)
           (-30.0 30.0)
           (-30.0 30.0)
  end
  begin
     id 17 
     name lclavicle
     direction 0.90877 0.417247 -0.00652364  
     length 3.25514  
     axis 0 0 0   XYZ
    dof ry rz
    limits (-20.0 10.0)
           (0.0 20.0)
  end
  begin
     id 18 
     name lhumerus
     direction 1 -4.48949e-011 8.31417e-028   
     length 4.84834   
     axis 180 -30 -90   XYZ
    dof rx ry rz
    limits (-60.0 90.0)
           (-90.0 90.0)
           (-90.0 90.0)
  end
  begin
     id 19
     name lradius
     direction 1 -4.48984e-011 3.45616e-027   
     length 2.99713   
     axis 180 -30 -90   XYZ
    dof rx
    limits (-10.0 170.0)
  end
  begin
     id 20
     name lwrist
     direction 1 -4.4891e-011 4.0479e-027   
     length 1.49857   
     axis -1.61768e-015 90 90   XYZ
    dof ry
    limits (-180.0 0.0)
 end
  begin
     id 21 
     name lhand
     direction 1 -4.49025e-011 8.0958e-027   
     length 0.693987   
     axis -5.16581e-015 90 90   XYZ
    dof rx rz
    limits (-90.0 90.0)
           (-45.0 45.0)
  end
  begin
     id 22 
     name lfingers
     direction 1 -4.4888e-011 1.61916e-026   
     length 0.55951   
     axis -1.03316e-014 90 90   XYZ
    dof rx
    limits (0.0 90.0)
  end
  begin
     id 23
     name lthumb
     direction 0.707107 -6.3493e-011 0.707107   
     length 0.803348   
     axis -90 45 2.85299e-015   XYZ
    dof rx rz
    limits (-45.0 45.0)
           (-45.0 45.0)
  end
  begin
     id 24 
     name rclavicle
     direction -0.906655 0.41906 0.0486307   
     length 3.3311  
     axis 0 0 0   XYZ 
    dof ry rz
    limits (-10.0 20.0)
           (-20.0 0.0)
  end
  begin
     id 25 
     name rhumerus
     direction -1 -4.48959e-011 6.37764e-018  
     length 4.93457   
     axis 180 30 90   XYZ
    dof rx ry rz
    limits (-90.0 60.0)
           (-90.0 90.0)
           (-90.0 90.0)
  end
  begin
     id 26 
     name rradius
     direction -1 -4.48957e-011 2.20847e-027   
     length 3.3443   
     axis 180 30 90   XYZ
    dof rx
    limits (-10.0 170.0)
  end
  begin
     id 27 
     name rwrist
     direction -1 -4.49008e-011 4.0479e-027   
     length 1.67215   
     axis -1.61768e-015 -90 -90   XYZ
    dof ry
    limits (-180.0 0.0)
  end
  begin
     id 28
     name rhand
     direction -1 -4.49013e-011 8.0958e-027   
     length 0.677363   
     axis -5.16581e-015 -90 -90   XYZ
    dof rx rz
    limits (-90.0 90.0)
           (-45.0 45.0)
  end
  begin
     id 29
     name rfingers
     direction -1 -4.48832e-011 1.61916e-026   
     length 0.546107   
     axis -1.03316e-014 -90 -90   XYZ
    dof rx
    limits (0.0 90.0)
  end
  begin
     id 30
     name rthumb
     direction -0.707107 -6.34895e-011 0.707107   
     length 0.784104   
     axis -90 -45 -2.85299e-015   XYZ
    dof rx rz
    limits (-45.0 45.0)
           (-45.0 45.0)
  end
:hierarchy
  begin
    root lhipjoint rhipjoint lowerback
    lhipjoint lfemur
    lfemur ltibia
    ltibia lfoot
    lfoot ltoes
    rhipjoint rfemur
    rfemur rtibia
    rtibia rfoot
    rfoot rtoes
    lowerback upperback
    upperback thorax
    thorax lowerneck lclavicle rclavicle
    lowerneck upperneck
    upperneck head
    lclavicle lhumerus
    lhumerus lradius
    lradius lwrist
    lwrist lhand lthumb
    lhand lfingers
    rclavicle rhumerus
    rhumerus rradius
    rradius rwrist
    rwrist rhand rthumb
    rhand rfingers
  end

#!OML:ASF H:\Terrain\Patient Classification 1\junglegym\FridayTest\junglegym.ASF
:FULLY-SPECIFIED
:DEGREES
566
root -13.1588 16.3233 0.250384 174.775 -85.4818 -208.793
lowerback 19.2458 0.0253106 0.351935
upperback -3.13652 -0.0403621 -1.09381
thorax -14.4494 -0.114067 -1.42637
lowerneck 7.87773 2.2159 -14.0319
upperneck 37.2487 -3.31891 11.5268
head 11.1655 -3.67052 6.49694
rclavicle 8.34896e-015 -1.78782e-014
rhumerus 98.3513 -13.9832 -70.6081
rradius 39.95
rwrist 13.0917
rhand -8.87323 17.6536
rfingers 7.12502
rthumb 17.0685 -11.6166
lclavicle 8.34896e-015 -1.78782e-014
lhumerus 98.3629 15.0471 65.201
lradius 42.1143
lwrist -32.1977
lhand 0.0149501 24.0014
lfingers 7.12502
lthumb 25.6047 52.3001
rfemur -48.5385 20.208 18.1414
rtibia 35.6869
rfoot -1.28437 -13.6984
rtoes 27.0667
lfemur -46.7147 -17.6831 -8.59219
ltibia 26.3901
lfoot -5.34107 16.7966
ltoes 11.2189
567
root -13.5069 16.4257 0.231286 184.275 -85.4533 -219.079
lowerback 18.9932 0.119978 -0.389983
upperback -3.17484 -0.146152 -1.43685
thorax -14.3462 -0.121073 -1.3562
lowerneck 8.3036 2.18008 -13.7393
upperneck 37.0532 -3.40771 11.4263
head 11.0154 -3.69877 6.3848
rclavicle 3.27995e-015 7.56624e-015
rhumerus 98.1912 -14.219 -70.8944
rradius 40.3037
rwrist 13.4018
rhand -9.81364 16.1263
rfingers 7.12502
rthumb 16.1631 -13.2197
lclavicle 3.27995e-015 7.56624e-015
lhumerus 98.0812 15.2007 64.4133
lradius 42.7101
lwrist -31.6981
lhand 0.342728 24.556
lfingers 7.12502
lthumb 25.9186 52.8091
rfemur -49.0018 23.6259 14.9506
rtibia 35.4112
rfoot -4.19683 -15.6408
rtoes 40.2352
lfemur -46.68 -17.8075 -9.68125
ltibia 26.8353
lfoot -11.1978 16.7117
ltoes 34.3226
568
root -13.8363 16.5456 0.222114 175.395 -85.6762 -211.243
lowerback 18.9181 -0.0688352 0.161044
upperback -3.02824 -0.215127 -1.11948
thorax -14.1294 -0.177262 -1.28835
lowerneck 8.62654 2.16662 -13.7979
upperneck 36.5749 -3.29749 11.1066
head 10.7454 -3.6644 6.25146
rclavicle 5.59082e-015 -7.85199e-015
rhumerus 98.3253 -13.9726 -70.882
rradius 40.6914
rwrist 13.3801
rhand -9.15613 15.7648
rfingers 7.12502
rthumb 16.7961 -13.5287
lclavicle 5.59082e-015 -7.85199e-015
lhumerus 97.9146 15.6755 64.1684
lradius 43.037
lwrist -31.4677
lhand 0.447565 24.9021
lfingers 7.12502
lthumb 26.019 53.1405
rfemur -49.2632 28.2894 12.7265
rtibia 35.1769
rfoot -8.24108 -18.637
rtoes 47.2108
lfemur -46.3654 -18.2191 -9.35556
ltibia 27.1982
lfoot -9.38202 18.2469
ltoes 24.4676
569
root -14.1409 16.683 0.220092 165.232 -85.6261 -201.983
lowerback 18.8262 -0.172572 1.28103
upperback -2.99387 -0.0752453 -1.06605
thorax -14.0339 -0.200211 -1.90939
lowerneck 8.86492 2.06274 -13.4833
upperneck 36.3493 -3.40855 10.9592
head 10.6226 -3.68638 6.11924
rclavicle -3.80797e-015 5.05099e-014
rhumerus 98.064 -14.3758 -70.6231
rradius 41.2097
rwrist 13.0638
rhand -8.61841 15.6196
rfingers 7.12502
rthumb 17.3137 -13.6292
lclavicle -3.80797e-015 5.05099e-014
lhumerus 97.8801 15.8647 63.8685
lradius 43.3337
lwrist -31.1698
lhand 1.12882 24.9541
lfingers 7.12502
lthumb 26.6711 53.095
rfemur -47.9455 24.8901 15.6326
rtibia 34.7713
rfoot -4.38531 -15.7662
rtoes 47.9771
lfemur -46.2945 -18.3685 -8.91291
ltibia 27.6803
lfoot -7.6122 19.6614
ltoes 14.1281
570
root -14.413 16.8219 0.2189 167.328 -85.604 -205.169
lowerback 18.9496 -0.13612 1.21151
upperback -2.92421 -0.0522471 -1.13193
thorax -14.0246 -0.18755 -1.95135
lowerneck 9.06082 2.04257 -13.4797
upperneck 36.3561 -3.46911 10.9026
head 10.6016 -3.73705 6.09171
rclavicle -2.64135e-014 -9.06955e-016
rhumerus 97.7705 -14.7491 -70.1543
rradius 41.874
rwrist 12.5729
rhand -8.44005 15.7146
rfingers 7.12502
rthumb 17.4854 -13.519
lclavicle -2.64135e-014 -9.06955e-016
lhumerus 97.392 16.6867 63.0629
lradius 44.0947
lwrist -29.9842
lhand 2.10378 25.4544
lfingers 7.12502
lthumb 27.6038 53.4498
rfemur -46.3955 20.5199 18.2784
rtibia 34.3395
rfoot 0.921953 -11.5782
rtoes 38.0517
lfemur -45.9538 -18.4122 -9.51851
ltibia 28.1945
lfoot -5.76732 20.7436
ltoes 4.72611
571
root -14.6783 16.9707 0.205158 158.728 -85.5503 -197.436
lowerback 18.7327 -0.307867 2.04944
upperback -2.82192 -0.0674995 -1.01629
thorax -13.7795 -0.251022 -2.29187
lowerneck 9.0182 2.05635 -13.8936
upperneck 36.5245 -3.52036 11.0264
head 10.6959 -3.82534 6.21912
rclavicle -6.08778e-015 7.37988e-015
rhumerus 97.6978 -14.9464 -70.0683
rradius 42.4146
rwrist 12.1476
rhand -8.04487 15.9117
rfingers 7.12502
rthumb 17.8657 -13.2877
lclavicle -6.08778e-015 7.37988e-015
lhumerus 96.8772 17.5692 62.0475
lradius 45.0093
lwrist -28.7788
lhand 2.71646 25.9751
lfingers 7.12502
lthumb 28.1896 53.8754
rfemur -46.6245 24.207 15.9758
rtibia 34.1062
rfoot -5.3939 -14.1702
rtoes 55.2155
lfemur -45.743 -18.273 -9.27852
ltibia 28.365
lfoot 0.0508505 21.1391
ltoes -19.811
572
root -14.9775 17.1177 0.189686 150.462 -85.3652 -189.499
lowerback 17.911 -0.452248 2.9209
upperback -2.79057 -0.066939 -0.948043
thorax -13.2594 -0.305151 -2.70539
lowerneck 8.91739 2.01388 -13.8666
upperneck 36.6269 -3.56042 10.9482
head 10.7629 -3.85554 6.18384
rclavicle 4.64659e-015 -1.66109e-014
rhumerus 97.6377 -15.0795 -70.3233
rradius 43.1032
rwrist 11.9538
rhand -7.24992 16.7459
rfingers 7.12502
rthumb 18.6304 -12.382
lclavicle 4.64659e-015 -1.66109e-014
lhumerus 96.7122 18.0406 61.3706
lradius 45.6749
lwrist -28.3714
lhand 3.01413 25.9208
lfingers 7.12502
lthumb 28.4741 53.7738
rfemur -47.1057 25.3532 15.8556
rtibia 34.0762
rfoot -6.01434 -15.5124
rtoes 53.9562
lfemur -46.0264 -17.4332 -9.24773
ltibia 28.414
lfoot -0.818438 21.3489
ltoes -13.7478
